<svg width="20" height="13" viewBox="0 0 20 13" fill="none" xmlns="http://www.w3.org/2000/svg">
<path d="M4.94365 5.26226C6.12006 5.26342 7.07467 4.31068 7.07583 3.13427C7.07698 1.95786 6.12425 1.00325 4.94783 1.00209C3.77142 1.00094 2.81681 1.95367 2.81566 3.13009C2.8145 4.3065 3.76724 5.26111 4.94365 5.26226Z" stroke="#8695A0" stroke-width="1.2" stroke-miterlimit="10" stroke-linecap="round" stroke-linejoin="round"/>
<path d="M0.999974 9.0926C1.00207 6.96252 2.70791 5.15362 4.9445 5.15582C6.22255 5.15707 7.39347 5.79725 8.13806 6.75652" stroke="#8695A0" stroke-width="1.2" stroke-miterlimit="10" stroke-linecap="round" stroke-linejoin="round"/>
<path d="M13.8915 7.1881C15.4209 7.1881 16.6607 5.94832 16.6607 4.41898C16.6607 2.88965 15.4209 1.64987 13.8915 1.64987C12.3622 1.64987 11.1224 2.88965 11.1224 4.41898C11.1224 5.94832 12.3622 7.1881 13.8915 7.1881Z" stroke="#8695A0" stroke-width="1.2" stroke-miterlimit="10" stroke-linecap="round" stroke-linejoin="round"/>
<path d="M8.77557 12.1939C8.77557 9.42479 11.0122 7.0817 13.8878 7.0817C16.7634 7.0817 19 9.31829 19 12.1939" stroke="#8695A0" stroke-width="1.2" stroke-miterlimit="10" stroke-linecap="round" stroke-linejoin="round"/>
</svg>
