<svg width="18" height="16" viewBox="0 0 18 16" fill="none" xmlns="http://www.w3.org/2000/svg">
<g id="Group 229">
<g id="Group 207">
<path id="Vector" d="M15.0247 15.2241H2.97531C1.88889 15.2241 1 14.3353 1 13.2488V4.45871C1 3.37229 1.88889 2.4834 2.97531 2.4834H15.0247C16.1111 2.4834 17 3.37229 17 4.45871V13.2488C17 14.3353 16.1111 15.2241 15.0247 15.2241Z" stroke="#8695A0" stroke-width="1.2" stroke-miterlimit="10" stroke-linecap="round" stroke-linejoin="round"/>
<path id="Vector_2" d="M5.35161 4.06173L5.35461 1" stroke="#8695A0" stroke-width="1.2" stroke-miterlimit="10" stroke-linecap="round" stroke-linejoin="round"/>
<path id="Vector_3" d="M12.5621 4.06673L12.5651 1.005" stroke="#8695A0" stroke-width="1.2" stroke-miterlimit="10" stroke-linecap="round" stroke-linejoin="round"/>
<path id="Vector_4" d="M9.00326 5.94094L9.8903 7.81835L12.0628 8.11678L10.481 9.69548L10.8741 11.7699L8.9985 10.7804L7.12099 11.7663L7.41932 9.69247L5.93939 8.11077L8.01376 7.81651L9.00326 5.94094Z" stroke="#8695A0" stroke-width="1.2" stroke-miterlimit="10" stroke-linecap="round" stroke-linejoin="round"/>
</g>
</g>
</svg>
