<svg width="40" height="40" viewBox="0 0 40 40" fill="none" xmlns="http://www.w3.org/2000/svg">
<g id="Group 96">
<rect id="Rectangle 31" y="6.10352e-05" width="40" height="40" rx="20" fill="#F4694C"/>
<g id="Group 95">
<path id="Vector" d="M13.0646 26.1056L14.7248 20.3579L13.0646 14.6102C12.9976 14.3776 12.9989 14.1307 13.0684 13.8989C13.1379 13.6671 13.2727 13.4601 13.4566 13.3028C13.6405 13.1455 13.8658 13.0444 14.1056 13.0117C14.3454 12.9789 14.5895 13.0159 14.8089 13.1181L28.3849 19.4227C28.5683 19.5063 28.7239 19.6409 28.8329 19.8105C28.942 19.98 29 20.1773 29 20.3789C29 20.5805 28.942 20.7779 28.8329 20.9474C28.7239 21.117 28.5683 21.2516 28.3849 21.3351L14.8089 27.6398C14.5857 27.7475 14.3357 27.787 14.0901 27.7534C13.8445 27.7199 13.6143 27.6147 13.4282 27.451C13.2421 27.2873 13.1083 27.0724 13.0437 26.8331C12.979 26.5938 12.9863 26.3408 13.0646 26.1056Z" stroke="white" stroke-width="1.5" stroke-linecap="round" stroke-linejoin="round"/>
<path id="Vector_2" d="M14.7252 20.3579H19.2855" stroke="white" stroke-width="1.5" stroke-linecap="round" stroke-linejoin="round"/>
</g>
</g>
</svg>
